<?xml version="1.0" encoding="UTF-8" standalone="no"?><!DOCTYPE svg PUBLIC "-//W3C//DTD SVG 1.1//EN" "http://www.w3.org/Graphics/SVG/1.1/DTD/svg11.dtd"><svg width="100%" height="100%" viewBox="0 0 2179 686" version="1.1" xmlns="http://www.w3.org/2000/svg" xmlns:xlink="http://www.w3.org/1999/xlink" xml:space="preserve" xmlns:serif="http://www.serif.com/" style="fill-rule:evenodd;clip-rule:evenodd;stroke-linejoin:round;stroke-miterlimit:2;"><rect id="Artboard2" x="0" y="0" width="2178.604" height="686" style="fill:none;"/><path d="M1359.302,109.022l0,468.956c0,32.299 -26.223,58.522 -58.522,58.522l-468.956,0c-32.299,0 -58.522,-26.223 -58.522,-58.522l0,-468.956c0,-32.299 26.223,-58.522 58.522,-58.522l468.956,0c32.299,0 58.522,26.223 58.522,58.522Z" style="fill:#29deac;"/><circle cx="347" cy="343.5" r="293" style="fill:#fb1c31;"/><path d="M2059.07,317.305c9.495,5.3 15.378,15.322 15.378,26.195c-0,10.873 -5.884,20.896 -15.378,26.195c-104.658,58.418 -355.986,198.705 -458.448,255.897c-9.291,5.186 -20.634,5.063 -29.81,-0.324c-9.176,-5.387 -14.812,-15.231 -14.812,-25.871c0,-115.617 0,-396.177 0,-511.795c-0,-10.64 5.636,-20.485 14.812,-25.871c9.176,-5.387 20.519,-5.51 29.81,-0.324c102.463,57.193 353.79,197.479 458.448,255.897Z" style="fill:#ffb11f;"/></svg>